<?xml version="1.0" encoding="utf-8"?>
<!-- Generator: Adobe Illustrator 26.0.1, SVG Export Plug-In . SVG Version: 6.00 Build 0)  -->
<svg version="1.1" id="Layer_1" xmlns="http://www.w3.org/2000/svg" xmlns:xlink="http://www.w3.org/1999/xlink" x="0px" y="0px"
	 viewBox="0 0 256 256" style="enable-background:new 0 0 256 256;" xml:space="preserve">
<style type="text/css">
	.st0{fill:#545454;}
	.st1{fill:#23A564;}
	.st2{fill:#18A464;}
	.st3{fill:#067444;}
	.st4{fill:#4C7ABC;}
</style>
<g>
	<g>
		<g>
			<g transform="translate(3.167681, 152.011483)">
				<g>
					<path class="st0" d="M31.1,34.5c0,2.3-0.8,4.5-2.5,6.6c-0.9,1.1-2.2,2-3.9,2.7c-1.7,0.7-3.8,1-6.1,1h-5.1v13.1H5.3V24.1h13.4
						c3.9,0,7,1,9.1,3C30,29.2,31.1,31.6,31.1,34.5z M13.5,38.5h5.1c1.2,0,2.2-0.4,3-1.1c0.7-0.8,1.1-1.7,1.1-2.9
						c0-1.2-0.4-2.2-1.1-3c-0.7-0.8-1.7-1.2-2.9-1.2h-5.1V38.5z"/>
				</g>
			</g>
		</g>
		<g>
			<g transform="translate(25.431462, 152.011483)">
				<g>
					<path class="st0" d="M21,31v5c1.9-3.5,4.5-5.3,7.7-5.3v8.4h-2c-1.9,0-3.3,0.5-4.3,1.4c-0.9,0.9-1.4,2.5-1.4,4.7v12.7h-8.3V31
						H21z"/>
				</g>
			</g>
		</g>
		<g>
			<g transform="translate(39.960727, 152.011483)">
				<g>
					<path class="st0" d="M25.1,28c-0.9,0.9-2.1,1.4-3.4,1.4c-1.3,0-2.5-0.5-3.4-1.4c-0.9-0.9-1.4-2.1-1.4-3.4
						c0-1.4,0.5-2.5,1.4-3.5c0.9-0.9,2.1-1.4,3.4-1.4c1.3,0,2.5,0.5,3.4,1.4c0.9,0.9,1.4,2.1,1.4,3.5C26.5,25.9,26,27.1,25.1,28z
						 M17.6,57.9V31h8.2v26.9H17.6z"/>
				</g>
			</g>
		</g>
		<g>
			<g transform="translate(50.76731, 152.011483)">
				<g>
					<path class="st0" d="M17.7,31h8.8l6.1,20l6.1-20h8.8L38,57.9H27.3L17.7,31z"/>
				</g>
			</g>
		</g>
		<g>
			<g transform="translate(72.597384, 152.011483)">
				<g>
					<path class="st0" d="M44.8,49.4c1.2-1.2,1.8-2.8,1.8-4.9c0-2.1-0.6-3.8-1.8-4.9c-1.2-1.1-2.5-1.7-4.1-1.7s-2.9,0.6-4.1,1.7
						c-1.2,1.2-1.8,2.8-1.8,4.9s0.6,3.8,1.8,4.9c1.2,1.1,2.6,1.7,4.1,1.7S43.6,50.6,44.8,49.4z M30,54.4c-2.4-2.6-3.6-5.9-3.6-9.9
						c0-4,1.2-7.3,3.6-9.9c2.4-2.6,5.3-3.9,8.7-3.9c3.4,0,6.1,1.3,7.9,3.8V31h8.2v26.9h-8.2V54c-2,2.8-4.7,4.2-8,4.2
						C35.3,58.3,32.4,57,30,54.4z"/>
				</g>
			</g>
		</g>
		<g>
			<g transform="translate(97.029722, 152.011483)">
				<g>
					<path class="st0" d="M48,50.9H51v7h-4.2c-3,0-5.4-0.7-7-2c-1.7-1.3-2.5-3.6-2.5-6.9V37.9h-2.5V31h2.5v-6.5h8.2V31h5.4v6.9h-5.4
						V49C45.5,50.3,46.3,50.9,48,50.9z"/>
				</g>
			</g>
		</g>
		<g>
			<g transform="translate(111.233704, 152.011483)">
				<g>
					<path class="st0" d="M52.8,58.3c-3.9,0-7.1-1.3-9.6-3.8c-2.5-2.5-3.8-5.9-3.8-10c0-4.2,1.2-7.5,3.7-10c2.5-2.5,5.7-3.7,9.6-3.7
						c4,0,7.2,1.2,9.8,3.7c2.6,2.4,3.9,5.8,3.9,10.2c0,0.9-0.1,1.8-0.2,2.6H47.8c0.2,1.2,0.7,2.2,1.6,2.9c0.9,0.8,1.9,1.1,2.9,1.1
						c1,0,1.8-0.1,2.3-0.3c0.5-0.2,0.9-0.4,1.1-0.6c0.2-0.2,0.6-0.5,0.9-1h8.9c-0.8,2.7-2.3,4.9-4.6,6.5
						C58.7,57.4,55.9,58.3,52.8,58.3z M57.9,42c-0.1-1.2-0.7-2.3-1.6-3.1c-1-0.8-2.1-1.2-3.4-1.2c-1.3,0-2.4,0.4-3.3,1.2
						c-0.9,0.8-1.4,1.8-1.7,3.1H57.9z"/>
				</g>
			</g>
		</g>
		<g>
			<g transform="translate(133.278312, 152.011483)">
				<g>
					<path class="st1" d="M70.2,57.9l-1.9-5.7H56.1l-1.9,5.7h-8.8L57.3,24h10L79,57.9H70.2z M58.2,46h8l-4-12L58.2,46z"/>
				</g>
			</g>
		</g>
		<g>
			<g transform="translate(158.252787, 152.011483)">
				<g>
					<path class="st1" d="M73.4,49.4c1.2-1.2,1.8-2.8,1.8-4.9c0-2.1-0.6-3.8-1.8-4.9c-1.2-1.1-2.5-1.7-4.1-1.7s-2.9,0.6-4.1,1.7
						c-1.2,1.2-1.8,2.8-1.8,4.9s0.6,3.8,1.8,4.9c1.2,1.1,2.6,1.7,4.1,1.7S72.2,50.6,73.4,49.4z M58.6,54.4c-2.4-2.6-3.6-5.9-3.6-9.9
						c0-4,1.2-7.3,3.6-9.9c2.4-2.6,5.3-3.9,8.7-3.9c3.4,0,6.1,1.3,7.9,3.8V22.3h8.2v35.7h-8.2V54c-2,2.8-4.7,4.2-8,4.2
						C63.8,58.3,61,57,58.6,54.4z"/>
				</g>
			</g>
		</g>
	</g>
	<g>
		<path class="st2" d="M183.3,164.9h-27.4c-4.3,0-8.3-1.7-11.2-4.5c-1.9-1.8-3.3-4-4.2-6.6l-17.6-53l-17.4-52.3h39.2L183.3,164.9z"
			/>
		<path class="st3" d="M144.6,48.5v111.9c-1.9-1.8-3.3-4-4.2-6.6l-17.6-53V48.5H144.6z"/>
		<path class="st4" d="M66.8,164.9h27.4c7,0,13.2-4.5,15.4-11.1l35-105.3h-39.2L66.8,164.9z"/>
	</g>
</g>
</svg>
